<?xml version="1.0" encoding="UTF-8"?>
<svg id="Layer_1" data-name="Layer 1" xmlns="http://www.w3.org/2000/svg" xmlns:xlink="http://www.w3.org/1999/xlink" viewBox="0 0 76.1 76.1">
  <defs>
    <style>
      .cls-1 {
        fill: url(#linear-gradient);
        opacity: .9;
        stroke: #fff;
        stroke-miterlimit: 10;
        stroke-width: .1px;
      }
    </style>
    <linearGradient id="linear-gradient" x1=".05" y1="38.05" x2="76.05" y2="38.05" gradientUnits="userSpaceOnUse">
      <stop offset="0" stop-color="#005b97"/>
      <stop offset=".5" stop-color="#0075be"/>
      <stop offset="1" stop-color="#1e9cd7"/>
    </linearGradient>
  </defs>
  <path class="cls-1" d="M71.05.05H5.05C2.29.05.05,2.29.05,5.05v66c0,2.76,2.24,5,5,5h66c2.76,0,5-2.24,5-5V5.05c0-2.76-2.24-5-5-5ZM50.95,13.74c-.56.1-1.47.32-2.36.93-2.62,1.76-2.2,4.75-3.97,6.3-1.07.94-3.23,1.61-8.08-.09.62-.13,1.6-.41,2.59-1.08,2.92-1.97,2.59-5.08,4.65-6.52,1.08-.76,3.1-1.25,7.18.47ZM37.4,10.77c1.08-.76,3.1-1.25,7.18.47-.56.1-1.47.32-2.36.93-2.62,1.76-2.2,4.75-3.97,6.3-1.07.94-3.23,1.61-8.08-.09.62-.13,1.6-.41,2.59-1.08,2.92-1.97,2.59-5.08,4.65-6.52ZM20.61,15.38c1.32-.94,3.27-2.12,5.82-2.99,2.86-.97,5.38-1.19,7.1-1.2.01.67.02,1.35.04,2.02-1.57.04-3.75.26-6.21,1.03-2.45.77-4.35,1.82-5.66,2.68-.36-.52-.72-1.03-1.09-1.55ZM49.79,67.02h-7.74v-30.1c0-2.92-.4-5.09-1.2-6.49-.46-.81-1.19-1.37-2.18-1.72.09,1,.14,2.13.14,3.42v30.1h-7.74v-30.1c0-2.92-.4-5.09-1.2-6.49-.8-1.4-2.41-2.11-4.82-2.11h-1.72v-1.72h7.74c2.12,0,3.71.27,4.77.82,1.06.54,1.82,1.53,2.28,2.97.1.3.18.64.26,1.01h3.68c2.12,0,3.71.27,4.77.82,1.06.55,1.82,1.54,2.28,2.97.46,1.43.69,3.61.69,6.54v30.1ZM47.11,19.93l1.43-1.4c3.05,3.57,4.83,8.04,5.15,12.5-.98-4.37-3.35-8.3-6.57-11.1Z"/>
</svg>