<?xml version="1.0" encoding="UTF-8"?>
<svg id="Layer_1" data-name="Layer 1" xmlns="http://www.w3.org/2000/svg" xmlns:xlink="http://www.w3.org/1999/xlink" viewBox="0 0 126 126">
  <defs>
    <style>
      .cls-1 {
        fill: url(#linear-gradient);
        opacity: .9;
      }
    </style>
    <linearGradient id="linear-gradient" x1="0" y1="63" x2="126" y2="63" gradientUnits="userSpaceOnUse">
      <stop offset="0" stop-color="#41b792"/>
      <stop offset=".5" stop-color="#41b792"/>
      <stop offset="1" stop-color="#49c14c"/>
    </linearGradient>
  </defs>
  <path class="cls-1" d="M111,0H15C6.72,0,0,6.72,0,15v96c0,8.28,6.72,15,15,15h96c8.28,0,15-6.72,15-15V15c0-8.28-6.72-15-15-15ZM39,48v57h-18v-57h18ZM21,31.41c0-4.2,3.6-7.41,9-7.41s8.79,3.21,9,7.41c0,4.2-3.36,7.59-9,7.59s-9-3.39-9-7.59ZM105,105h-18v-30c0-6-3-12-10.5-12.12h-.24c-7.26,0-10.26,6.18-10.26,12.12v30h-18v-57h18v7.68s5.79-7.68,17.43-7.68,21.57,8.19,21.57,24.78v32.22Z"/>
</svg>