<?xml version="1.0" encoding="UTF-8"?>
<svg id="Layer_1" data-name="Layer 1" xmlns="http://www.w3.org/2000/svg" xmlns:xlink="http://www.w3.org/1999/xlink" viewBox="0 0 576.04 484.76">
  <defs>
    <style>
      .cls-1 {
        fill: url(#linear-gradient);
      }

      .cls-2 {
        fill: #575757;
      }

      .cls-3 {
        font-family: Philosopher-Bold, Philosopher;
        font-size: 55px;
        font-weight: 700;
      }
    </style>
    <linearGradient id="linear-gradient" x1="45.86" y1="207.17" x2="392.62" y2="207.17" gradientUnits="userSpaceOnUse">
      <stop offset="0" stop-color="#010101" stop-opacity="0"/>
      <stop offset="1" stop-color="#bbb"/>
    </linearGradient>
  </defs>
  <g>
    <text class="cls-3" transform="translate(62.72 284.82) rotate(-49.63)"><tspan x="0" y="0">A</tspan></text>
    <text class="cls-3" transform="translate(82.89 260.43) rotate(-43.13)"><tspan x="0" y="0">w</tspan></text>
    <text class="cls-3" transform="translate(113.55 232.26) rotate(-36.93)"><tspan x="0" y="0">s</tspan></text>
    <text class="cls-3" transform="translate(133.76 217.29) rotate(-33.32)"><tspan x="0" y="0"> </tspan></text>
    <text class="cls-3" transform="translate(144.42 209.72) rotate(-28.77)"><tspan x="0" y="0">A</tspan></text>
    <text class="cls-3" transform="translate(175.14 193.3) rotate(-24.16)"><tspan x="0" y="0">l</tspan></text>
    <text class="cls-3" transform="translate(187.56 187.6) rotate(-20.81)"><tspan x="0" y="0">-</tspan></text>
    <text class="cls-3" transform="translate(206.45 180.06) rotate(-15.74)"><tspan x="0" y="0">R</tspan></text>
    <text class="cls-3" transform="translate(238.23 171.23) rotate(-10.04)"><tspan x="0" y="0">a</tspan></text>
    <text class="cls-3" transform="translate(264.26 166.53) rotate(-4.7)"><tspan x="0" y="0">h</tspan></text>
    <text class="cls-3" transform="translate(293.25 164.15) rotate(.68)"><tspan x="0" y="0">e</tspan></text>
    <text class="cls-3" transform="translate(320.41 164.44) rotate(5.84)"><tspan x="0" y="0">e</tspan></text>
    <text class="cls-3" transform="translate(347.33 166.62) rotate(12.54)"><tspan x="0" y="0">m</tspan></text>
    <g>
      <path class="cls-1" d="M80.09,262.48c-1.95.79-4.38.73-7.29-.21l-3.17-1.03-9.48,11.15,4.71,9.92-1.85,2.18-17.14-35.88,1.6-1.89,30.35,9.64c3.5,1.15,6.13.88,7.9-.79l1.05.89c-.29.62-.79,1.35-1.5,2.19-1.5,1.76-3.22,3.04-5.17,3.83ZM59.01,269.9l8.05-9.47-14.86-4.69,6.8,14.16Z"/>
      <path class="cls-1" d="M72.72,243.21c-2.05-.9-3.64-1.39-4.78-1.48-1.14-.09-2.09.18-2.87.8l-.71-.76,1.85-1.88c1.77-1.66,3.54-2.64,5.33-2.96,1.79-.32,4.01.06,6.68,1.13l10.59,4.47-3.33-8.94-1.73-.72c-2-.84-3.58-1.32-4.74-1.44-1.16-.12-2.06.08-2.7.57l-.71-.76,1.45-1.51c1.82-1.7,3.69-2.76,5.61-3.18,1.92-.42,4.19-.09,6.8.98l11.25,4.61-6.99-17.27,2.13-1.99,10.66,26.19-1.85,1.73-15.78-6.39,5.91,15.64-1.81,1.69-20.27-8.52Z"/>
      <path class="cls-1" d="M115.52,228.65c-.8-.09-1.56-.49-2.28-1.21s-1.62-1.79-2.7-3.23l1.54-1.16c1.41,1.33,2.93,2.1,4.56,2.32,1.63.22,3.28-.3,4.95-1.56,2.93-2.2,3.65-4.3,2.15-6.29-.57-.76-1.36-1.15-2.37-1.18-1-.02-2.43.17-4.27.59l-3.01.75c-2.49.59-4.57.75-6.24.49-1.67-.26-3.02-1.08-4.05-2.46-1.39-1.85-1.7-3.86-.93-6.04.77-2.18,2.4-4.21,4.89-6.08,3.43-2.58,6.24-3.75,8.43-3.52.8.09,1.56.48,2.27,1.19s1.62,1.79,2.72,3.25l-1.54,1.16c-1.41-1.33-2.93-2.1-4.56-2.32-1.63-.22-3.28.3-4.95,1.56-1.26.95-1.99,1.92-2.2,2.93-.21,1,.03,1.96.71,2.87.55.73,1.27,1.15,2.14,1.25.88.1,2.02-.01,3.43-.34l3.46-.88c2.85-.72,5.1-.98,6.75-.77,1.65.21,3.03,1.06,4.15,2.55,1.41,1.88,1.67,3.94.77,6.2-.9,2.26-2.69,4.4-5.39,6.42-3.43,2.58-6.24,3.75-8.43,3.52Z"/>
      <path class="cls-1" d="M168.6,195.03c-2.11.05-4.35-.88-6.74-2.79l-2.59-2.09-12.82,7.04.86,10.95-2.51,1.38-3.25-39.63,2.17-1.19,24.94,19.81c2.86,2.32,5.42,3.01,7.66,2.07l.66,1.21c-.49.48-1.22.98-2.18,1.51-2.02,1.11-4.09,1.69-6.2,1.74ZM146.27,194.46l10.9-5.98-12.21-9.67,1.32,15.65Z"/>
      <path class="cls-1" d="M166.43,165.27c-.77-1.71-1.57-2.86-2.4-3.47-.84-.61-1.96-.6-3.36.03l-.5.22-.68-1.51,6.02-2.7c1.2-.54,2.21-.75,3.03-.64.82.12,1.56.58,2.24,1.37.68.8,1.4,2.05,2.17,3.76l11.93,26.6-6.52,2.93-11.93-26.6Z"/>
      <path class="cls-1" d="M186.3,175.31l-1.86-4.88,14.34-5.45,1.86,4.88-14.34,5.45Z"/>
      <path class="cls-1" d="M230.46,172.01c-1.91-.7-4.13-2.22-6.65-4.55l-7.79-7.35-2.12.6,4.5,15.99-6.94,1.95-7.91-28.06c-.51-1.8-1.13-3.06-1.87-3.79-.74-.73-1.85-.88-3.33-.46l-.53.15-.45-1.59,14.61-4.12c3.67-1.04,7.16-1.29,10.47-.78,3.31.52,5.5,2.68,6.57,6.49,1.24,4.41-.79,8.15-6.1,11.2l8.17,7.7c3.07,2.91,5.8,4.23,8.21,3.97l.37,1.32c-.24.22-.72.49-1.43.8-.71.32-1.38.56-2.02.74-1.94.55-3.87.47-5.78-.23ZM216.49,157.69c1.98-.56,3.49-1.62,4.56-3.2,1.06-1.58,1.23-3.63.52-6.17-.71-2.51-1.92-4.17-3.63-4.98s-3.49-.96-5.32-.44c-1.02.29-1.8.58-2.32.88l-1.01.46,4.04,14.35,3.18-.89Z"/>
      <path class="cls-1" d="M241.95,169.09c-1.84-1.03-2.96-2.67-3.35-4.91-.32-1.8-.16-3.38.48-4.72.64-1.34,1.97-2.51,3.99-3.5,2.02-.99,4.93-1.82,8.72-2.49l.81-.14c-.56-3.14-1.38-5.29-2.48-6.46-1.1-1.16-2.5-1.6-4.2-1.3-1.41.25-2.5.8-3.28,1.64s-1.2,2.24-1.27,4.19l-2.98.53c-.22-1.23-.32-2.29-.31-3.18,0-.89.25-1.72.71-2.47.9-1.46,3.49-2.57,7.79-3.33,3.61-.64,6.53-.18,8.76,1.38,2.23,1.56,3.68,4.24,4.35,8.03l2.59,14.62-4.6.81-2.33-2.1-.27.05c-.23.56-.65,1.16-1.25,1.79-1.06,1.19-2.63,1.97-4.72,2.34-2.92.52-5.31.26-7.15-.77ZM252.11,166.07c.49-.4.94-.92,1.35-1.55.38-.59.63-1.25.77-1.98l-1.2-6.77-.81.14c-2.56.45-4.34,1.24-5.33,2.37-.99,1.12-1.32,2.66-.97,4.61.26,1.48.77,2.56,1.52,3.25.75.69,1.69.93,2.81.73.76-.13,1.38-.4,1.87-.8Z"/>
      <path class="cls-1" d="M265.16,137.2c-.15-1.86-.52-3.22-1.11-4.08-.59-.85-1.65-1.22-3.18-1.09l-.55.05-.13-1.64,6.58-.54c1.32-.11,2.34.03,3.07.41.73.38,1.28,1.06,1.66,2.04.37.98.64,2.4.79,4.27l.4,4.82c.31-.28.85-.68,1.61-1.18,1.41-.81,2.82-1.28,4.25-1.4,2.96-.24,5.5.31,7.61,1.66,2.12,1.35,3.33,3.86,3.63,7.51l1.34,16.28-7.13.59-1.32-16.01c-.22-2.63-.84-4.51-1.87-5.64-1.03-1.13-2.26-1.64-3.68-1.52-.99.08-2,.5-3.04,1.24-.42.29-.81.64-1.18,1.04l1.78,21.65-7.13.59-2.39-29.05Z"/>
      <path class="cls-1" d="M301.3,163.04c-1.89-1.2-3.35-2.82-4.37-4.87-1.02-2.05-1.52-4.35-1.49-6.92.03-2.86.58-5.29,1.65-7.3,1.07-2,2.53-3.52,4.37-4.54,1.85-1.02,3.92-1.52,6.23-1.49,2.27.03,4.32.51,6.14,1.45,1.82.94,3.25,2.25,4.3,3.93,1.04,1.68,1.55,3.6,1.53,5.77,0,.7-.05,1.48-.14,2.36l-.12,1.1-16.55-.2c-.04,3.48.46,6.03,1.5,7.64,1.04,1.61,2.52,2.42,4.43,2.45,1.76.02,3.24-.36,4.44-1.13,1.2-.77,2.36-1.89,3.48-3.34l1.69,1.29c-1.08,1.64-2.43,3-4.04,4.08-1.61,1.08-3.75,1.61-6.43,1.57-2.53-.03-4.74-.64-6.63-1.84ZM312.23,149.96c.04-3.45-.33-5.9-1.12-7.36-.79-1.46-1.94-2.2-3.44-2.21-1.39-.02-2.53.71-3.41,2.19-.88,1.47-1.34,3.9-1.38,7.27l9.35.11Z"/>
      <path class="cls-1" d="M328.53,164.05c-1.78-1.36-3.08-3.11-3.92-5.24-.83-2.13-1.12-4.47-.86-7.03.29-2.84,1.06-5.22,2.3-7.12,1.25-1.9,2.83-3.28,4.76-4.13s4.04-1.16,6.34-.93c2.26.23,4.26.9,5.99,1.99,1.73,1.1,3.04,2.53,3.93,4.3.89,1.77,1.22,3.73,1,5.88-.07.69-.19,1.47-.35,2.34l-.22,1.08-16.47-1.68c-.35,3.47-.08,6.04.81,7.74.9,1.69,2.29,2.64,4.19,2.83,1.75.18,3.26-.06,4.53-.73,1.26-.66,2.52-1.67,3.76-3.02l1.57,1.43c-1.23,1.53-2.69,2.77-4.38,3.7-1.7.93-3.88,1.26-6.54.99-2.52-.26-4.67-1.07-6.44-2.43ZM340.59,152.01c.35-3.43.2-5.9-.46-7.43-.66-1.52-1.73-2.36-3.23-2.51-1.39-.14-2.58.48-3.59,1.87-1.01,1.39-1.68,3.76-2.03,7.12l9.3.95Z"/>
      <path class="cls-1" d="M355.69,149.32c.41-1.83.46-3.23.18-4.21s-1.18-1.64-2.69-1.98l-.54-.12.36-1.61,5.31,1.18c2.33.52,3.7,1.54,4.11,3.06l.21.05c2.35-1.28,4.8-1.64,7.34-1.07,1.75.39,3.21,1.06,4.37,2.02,1.16.95,1.95,1.85,2.36,2.69,1.07-.74,2.25-1.25,3.56-1.55,1.3-.29,2.89-.23,4.75.18,6.26,1.39,8.66,5.38,7.2,11.97l-3.54,15.89-6.98-1.55,3.55-15.94c.55-2.47.56-4.37.02-5.69-.53-1.32-1.44-2.12-2.73-2.41-.97-.21-1.9-.23-2.81-.03-.91.19-1.66.54-2.26,1.05.04.16.1.58.17,1.28.05,1.14-.1,2.49-.45,4.07l-3.54,15.89-6.98-1.55,3.55-15.95c.55-2.47.56-4.36.02-5.69-.53-1.32-1.44-2.12-2.73-2.41-.75-.17-1.58-.12-2.48.15-.9.27-1.61.63-2.13,1.08v.79c.04.46-.04,1.18-.26,2.14l-4.02,18.09-6.98-1.55,4.06-18.25Z"/>
    </g>
  </g>
  <path class="cls-2" d="M72.92,340.88c16.09-52.03,50.53-99.52,97.45-127.74,46.38-27.95,104.14-35.8,156.42-22.24,34.69,8.81,66.82,26.67,92.52,51.1-26.55-23.52-59.04-40-93.39-47.45-36.33-7.99-74.79-5.78-109.83,6.54-2.12.79-7.11,2.71-9.14,3.47-1.82.8-7.04,3.07-8.94,3.91-7.64,3.68-15.59,7.99-22.69,12.62-39.96,25.85-68.92,66.73-84.29,111.42-1.33,3.94-2.61,8.11-3.58,12.08,0,0-14.53-3.71-14.53-3.71h0Z"/>
</svg>