<?xml version="1.0" encoding="UTF-8"?>
<svg id="Layer_1" data-name="Layer 1" xmlns="http://www.w3.org/2000/svg" viewBox="0 0 459.86 530.58">
  <defs>
    <style>
      .cls-1 {
        fill: #aeaeae;
        font-family: Philosopher-Bold, Philosopher;
        font-size: 55px;
        font-weight: 700;
      }

      .cls-2 {
        fill: #e5e5e5;
      }
    </style>
  </defs>
  <text class="cls-1" transform="translate(46.05 339.44) rotate(-91.1)"><tspan x="0" y="0">A</tspan></text>
  <text class="cls-1" transform="translate(45.01 307.81) rotate(-84.61)"><tspan x="0" y="0">w</tspan></text>
  <text class="cls-1" transform="translate(49.32 266.4) rotate(-78.41)"><tspan x="0" y="0">s</tspan></text>
  <text class="cls-1" transform="translate(54.54 241.8) rotate(-74.8)"><tspan x="0" y="0"> </tspan></text>
  <text class="cls-1" transform="translate(57.52 229.07) rotate(-70.25)"><tspan x="0" y="0">A</tspan></text>
  <text class="cls-1" transform="translate(69.67 196.42) rotate(-65.64)"><tspan x="0" y="0">l</tspan></text>
  <text class="cls-1" transform="translate(75.19 183.92) rotate(-62.29)"><tspan x="0" y="0">-</tspan></text>
  <text class="cls-1" transform="translate(84.35 165.77) rotate(-57.21)"><tspan x="0" y="0">R</tspan></text>
  <text class="cls-1" transform="translate(102.31 138.1) rotate(-51.51)"><tspan x="0" y="0">a</tspan></text>
  <text class="cls-1" transform="translate(118.7 117.33) rotate(-46.18)"><tspan x="0" y="0">h</tspan></text>
  <text class="cls-1" transform="translate(138.85 96.35) rotate(-40.8)"><tspan x="0" y="0">e</tspan></text>
  <text class="cls-1" transform="translate(159.39 78.58) rotate(-35.64)"><tspan x="0" y="0">e</tspan></text>
  <text class="cls-1" transform="translate(181 62.38) rotate(-28.93)"><tspan x="0" y="0">m</tspan></text>
  <path class="cls-2" d="M82,383.53c-24.04-59.57-26.29-129.73,0-188.91,29.68-67.97,94.34-117.7,167.17-130.45,19.15-3.45,38.7-4.44,58.03-2.98-38.61-1.71-77.58,6.56-112.03,23.93-49.22,24.54-88.73,67.9-107.55,119.6-18.73,51.26-15.84,108.87,2.72,159.75,1.59,4.29,3.37,8.72,5.29,12.79,0,0-13.62,6.28-13.62,6.28h0Z"/>
</svg>